<?xml version="1.0" encoding="UTF-8"?>
<svg width="14px" height="13px" viewBox="0 0 14 13" version="1.1" xmlns="http://www.w3.org/2000/svg" xmlns:xlink="http://www.w3.org/1999/xlink">
    <title>修改密码</title>
    <defs>
        <filter id="filter-1">
            <feColorMatrix in="SourceGraphic" type="matrix" values="0 0 0 0 0.521569 0 0 0 0 0.521569 0 0 0 0 0.521569 0 0 0 1.000000 0"></feColorMatrix>
        </filter>
    </defs>
    <g id="界面" stroke="none" stroke-width="1" fill="none" fill-rule="evenodd">
        <g id="菜单二级" transform="translate(-1328.000000, -69.000000)">
            <g id="管理员下拉" transform="translate(1316.000000, 55.000000)">
                <g id="个人中心" transform="translate(12.000000, 11.000000)">
                    <g id="修改密码" transform="translate(0.000000, 2.000000)" filter="url(#filter-1)">
                        <g>
                            <rect id="矩形" opacity="0.426850818" x="0" y="0" width="14" height="14"></rect>
                            <path d="M6.88166667,2.25166667 C8.08833333,2.25166667 9.07166667,3.23333333 9.07166667,4.44166667 C9.07166667,5.65 8.09,6.63166667 6.88166667,6.63166667 C5.67333333,6.63166667 4.69166667,5.65 4.69166667,4.44166667 C4.69166667,3.23333333 5.675,2.25166667 6.88166667,2.25166667 L6.88166667,2.25166667 Z M6.88166667,1 C4.98166667,1 3.44166667,2.54 3.44166667,4.44 C3.44166667,6.34 4.98166667,7.88 6.88166667,7.88 C8.78166667,7.88 10.3216667,6.34 10.3216667,4.44 C10.3216667,2.54166667 8.78166667,1 6.88166667,1 Z M11.2616667,9.76333333 C11.9516667,9.76333333 12.5133333,10.325 12.5133333,11.015 C12.5133333,11.705 11.9516667,12.2666667 11.2616667,12.2666667 L2.50166667,12.2666667 C1.81166667,12.2666667 1.25,11.705 1.25,11.015 C1.25,10.325 1.81166667,9.76333333 2.50166667,9.76333333 L11.2616667,9.76333333 L11.2616667,9.76333333 Z M11.2616667,8.51166667 L2.50166667,8.51166667 C1.125,8.51166667 0,9.63833333 0,11.0133333 C0,12.3883333 1.12666667,13.515 2.50166667,13.515 L11.26,13.515 C12.6366667,13.515 13.7616667,12.3883333 13.7616667,11.0133333 C13.7616667,9.63833333 12.6366667,8.51166667 11.2616667,8.51166667 Z" id="形状" fill="#04C4C9" fill-rule="nonzero"></path>
                            <path d="M10.7366667,11.64 L7.30333333,11.64 C6.96,11.64 6.67833333,11.3583333 6.67833333,11.015 C6.67833333,10.6716667 6.96,10.39 7.30333333,10.39 L10.7366667,10.39 C11.08,10.39 11.3616667,10.6716667 11.3616667,11.015 C11.3616667,11.3583333 11.08,11.64 10.7366667,11.64 Z" id="路径" fill="#04C4C9" fill-rule="nonzero"></path>
                        </g>
                    </g>
                </g>
            </g>
        </g>
    </g>
</svg>