<?xml version="1.0" encoding="UTF-8"?>
<svg width="14px" height="13px" viewBox="0 0 14 13" version="1.1" xmlns="http://www.w3.org/2000/svg" xmlns:xlink="http://www.w3.org/1999/xlink">
    <title>修改密码</title>
    <g id="界面" stroke="none" stroke-width="1" fill="none" fill-rule="evenodd">
        <g id="菜单二级" transform="translate(-1328.000000, -69.000000)" fill="#04C4C9" fill-rule="nonzero">
            <g id="管理员下拉" transform="translate(1316.000000, 55.000000)">
                <g id="个人中心" transform="translate(12.000000, 11.000000)">
                    <g id="修改密码" transform="translate(0.000000, 3.000000)">
                        <path d="M6.88166667,1.25166667 C8.08833333,1.25166667 9.07166667,2.23333333 9.07166667,3.44166667 C9.07166667,4.65 8.09,5.63166667 6.88166667,5.63166667 C5.67333333,5.63166667 4.69166667,4.65 4.69166667,3.44166667 C4.69166667,2.23333333 5.675,1.25166667 6.88166667,1.25166667 L6.88166667,1.25166667 Z M6.88166667,1.63424829e-13 C4.98166667,1.63424829e-13 3.44166667,1.54 3.44166667,3.44 C3.44166667,5.34 4.98166667,6.88 6.88166667,6.88 C8.78166667,6.88 10.3216667,5.34 10.3216667,3.44 C10.3216667,1.54166667 8.78166667,1.63424829e-13 6.88166667,1.63424829e-13 Z M11.2616667,8.76333333 C11.9516667,8.76333333 12.5133333,9.325 12.5133333,10.015 C12.5133333,10.705 11.9516667,11.2666667 11.2616667,11.2666667 L2.50166667,11.2666667 C1.81166667,11.2666667 1.25,10.705 1.25,10.015 C1.25,9.325 1.81166667,8.76333333 2.50166667,8.76333333 L11.2616667,8.76333333 L11.2616667,8.76333333 Z M11.2616667,7.51166667 L2.50166667,7.51166667 C1.125,7.51166667 1.08357767e-13,8.63833333 1.08357767e-13,10.0133333 C1.08357767e-13,11.3883333 1.12666667,12.515 2.50166667,12.515 L11.26,12.515 C12.6366667,12.515 13.7616667,11.3883333 13.7616667,10.0133333 C13.7616667,8.63833333 12.6366667,7.51166667 11.2616667,7.51166667 Z" id="形状"></path>
                        <path d="M10.7366667,10.64 L7.30333333,10.64 C6.96,10.64 6.67833333,10.3583333 6.67833333,10.015 C6.67833333,9.67166667 6.96,9.39 7.30333333,9.39 L10.7366667,9.39 C11.08,9.39 11.3616667,9.67166667 11.3616667,10.015 C11.3616667,10.3583333 11.08,10.64 10.7366667,10.64 Z" id="路径"></path>
                    </g>
                </g>
            </g>
        </g>
    </g>
</svg>